<?xml version="1.0" encoding="UTF-8"?>
<svg enable-background="new 0 0 128 128" version="1.1" viewBox="0 0 128 128" xml:space="preserve" xmlns="http://www.w3.org/2000/svg">
<style type="text/css">
	.st0{fill:#FFFFFF;stroke:#000000;stroke-width:5;stroke-miterlimit:10;}
	.st1{fill:#FFFFFF;}
</style>
	<rect class="st0" width="128" height="128"/>
	<path d="m21.65 103.72c-4.3 0.02-8.6 0.05-12.9 0.07 7.03-24.76 14.05-49.51 21.08-74.27 0.18-2.15 0.37-4.3 0.55-6.45 5.73-0.02 11.47-0.05 17.2-0.07 7.84 26.95 15.69 53.89 23.53 80.84h-14.7c-1.99-7.41-3.98-14.83-5.96-22.24-7.64-0.02-15.29-0.03-22.93-0.05-1.96 7.39-3.92 14.78-5.87 22.17z"/>
	<path class="st1" d="m47.07 68.77c-5.42-0.01-10.85-0.02-16.27-0.02 2.73-10.8 5.46-21.61 8.18-32.41 2.71 10.81 5.42 21.62 8.14 32.43"/>
	<path d="m115.68 90.2v11.37c-1.74 0.96-4.43 2.21-7.91 2.88-0.62 0.12-2.23 0.41-5.17 0.49-4.45 0.12-7.86 0.19-11.51-0.9-7.05-2.12-11.1-7.47-12.31-9.12-3.3-4.49-4.21-8.79-4.89-12-0.46-2.15-1.62-8.6 0.17-16.68 1.11-5 2.49-11.21 7.94-16.4 1.46-1.39 7.44-7.09 16.4-6.83 8.42 0.25 16.33 5.67 19.38 13.25 1.44 3.57 1.5 6.87 1.35 8.98 0.03 3.83 0.07 7.65 0.1 11.48h-32.11c-0.25 1.4-0.48 3.84 0.42 6.59 1.68 5.15 6.1 7.55 7.59 8.36 9.08 4.9 19.66-0.96 20.55-1.47z"/>
	<path class="st1" d="m106.39 65.93c-6.18-0.01-12.37-0.02-18.55-0.03-0.1-0.92-0.17-2.81 0.73-4.91 1.11-2.58 3.02-3.9 3.78-4.4 0.87-0.58 2.59-1.73 4.99-1.79 4.28-0.1 7 3.35 7.26 3.69 2.44 3.2 1.9 6.8 1.79 7.44z"/>
</svg>
