<?xml version="1.0" encoding="UTF-8"?>
<svg enable-background="new 0 0 128 128" version="1.1" viewBox="0 0 128 128" xml:space="preserve" xmlns="http://www.w3.org/2000/svg">
<style type="text/css">
	.st0{fill:#FFFFFF;stroke:#000000;stroke-width:5;stroke-miterlimit:10;}
	.st1{fill:#FFFFFF;}
</style>
	<rect class="st0" width="128" height="128"/>
	<path d="m33.77 105c-4.21-0.05-8.42-0.09-12.63-0.14 4.48-16.15 9.09-32.42 13.85-48.8 2.39-8.22 4.79-16.39 7.21-24.52 0.14-2.07 0.28-4.15 0.42-6.22 5.58 0.03 11.17 0.06 16.75 0.09 7.77 26.5 15.54 53.01 23.31 79.51-4.81 0.02-9.62 0.05-14.42 0.07-1.93-7.38-3.87-14.76-5.8-22.14-7.61 0.02-15.22 0.03-22.83 0.05-1.96 7.36-3.91 14.73-5.86 22.1z"/>
	<path class="st1" d="m59.24 70.53c-5.46-0.01-10.91-0.02-16.37-0.04 2.67-11.04 5.35-22.09 8.02-33.13 2.78 11.06 5.57 22.11 8.35 33.17z"/>
	<rect x="92.68" y="45.86" width="13.34" height="59.14"/>
	<ellipse cx="99.35" cy="30.8" rx="7.51" ry="7.8"/>
</svg>
