<?xml version="1.0" encoding="UTF-8"?>
<svg enable-background="new 0 0 128 128" version="1.1" viewBox="0 0 128 128" xml:space="preserve" xmlns="http://www.w3.org/2000/svg">
<style type="text/css">
	.st0{fill:#FFFFFF;stroke:#000000;stroke-width:5;stroke-miterlimit:10;}
	.st1{fill:#FFFFFF;}
</style>
	<rect class="st0" width="128" height="128"/>
	<rect x="21.82" y="23" width="17.35" height="80.13"/>
	<rect x="88.49" y="23" width="17.61" height="76.03"/>
	<path d="m106.11 99.03c-1.31 0.87-3.31 2.07-5.89 3.15-8.42 3.55-16.07 2.94-21.72 2.42-5.41-0.49-8.61-0.79-12.46-2.84-4.65-2.48-7.7-6.17-9.2-7.99-1.01-1.22-2.43-2.97-3.79-5.57-2.26-4.36-2.79-8.2-3.1-10.57-0.35-2.69-0.92-7.42 0.68-13.25 1.54-5.61 4.28-9.29 4.94-10.15 3.78-4.92 8.26-7.31 11.51-9.04 1.64-0.87 3.67-1.94 6.47-2.79 5.67-1.71 10.95-1.43 14.93-0.68"/>
	<path class="st1" d="m87.97 57.39v31.34c-1.12 0.1-2.72 0.19-4.63 0.13-3.62-0.12-5.67-0.19-7.89-1.39-2.31-1.26-3.62-3.12-4.36-4.18-1.32-1.88-1.87-3.55-2-3.94-0.49-1.54-0.55-2.81-0.66-5.34-0.11-2.43-0.16-3.66 0.18-5.34 0.4-1.93 1.1-3.33 1.37-3.84 1.74-3.3 4.33-5.01 5.42-5.7 0.68-0.43 1.97-1.25 3.81-1.81 3.7-1.14 7.01-0.45 8.76 0.07z"/>
</svg>
