<?xml version="1.0" encoding="UTF-8"?>
<svg enable-background="new 0 0 128 128" version="1.1" viewBox="0 0 128 128" xml:space="preserve" xmlns="http://www.w3.org/2000/svg">
<style type="text/css">
	.st0{fill:#FFFFFF;stroke:#000000;stroke-width:5;stroke-miterlimit:10;}
</style>
	<rect class="st0" width="128" height="128"/>
	<path d="m41.15 28.75c-4.07 0.11-8.09 0.13-12.06 0.05-0.02 23.26-0.03 46.53-0.05 69.79 12.01-0.05 24.01-0.1 36.02-0.15 0.82-4.1 1.63-8.21 2.45-12.31-8.55 0.03-17.1 0.07-25.65 0.1 0.01-19.17 0.03-38.33 0.04-57.5-0.24 0-0.5 0.01-0.75 0.02z"/>
	<path d="m89.12 98.9c-4.38 0.02-8.75 0.03-13.13 0.05 0.1-16.14 0.2-32.29 0.31-48.43 1.6-0.89 3.64-1.85 6.08-2.61 3.44-1.07 6.49-1.38 8.79-1.43h9.77c-0.01 3.51-0.03 7.02-0.04 10.54-2.1-0.07-4.49-0.02-7.09 0.27-1.65 0.18-3.19 0.44-4.6 0.73-0.03 13.62-0.06 27.25-0.09 40.88z"/>
	<path d="m4.36 16.95"/>
</svg>
