<?xml version="1.0" encoding="UTF-8"?>
<svg enable-background="new 0 0 128 128" version="1.1" viewBox="0 0 128 128" xml:space="preserve" xmlns="http://www.w3.org/2000/svg">
<style type="text/css">
	.st0{fill:#FFFFFF;stroke:#000000;stroke-width:5;stroke-miterlimit:10;}
</style>
	<rect class="st0" width="128" height="128"/>
	<path d="m22.96 34.8c-3.42 0.1-6.8 0.11-10.14 0.04-0.01 19.57-0.03 39.13-0.04 58.7 10.1-0.04 20.2-0.09 30.29-0.13 0.69-3.45 1.38-6.9 2.06-10.36l-21.57 0.09c0.01-16.12 0.03-32.24 0.04-48.36-0.21 0.01-0.42 0.01-0.64 0.02z"/>
	<path d="m63.31 93.8c-3.68 0.01-7.36 0.03-11.04 0.04 0.09-13.58 0.17-27.16 0.26-40.74 1.35-0.75 3.06-1.55 5.11-2.19 2.89-0.9 5.46-1.16 7.39-1.2h8.22c-0.01 2.95-0.02 5.91-0.03 8.86-1.77-0.06-3.77-0.02-5.96 0.23-1.39 0.15-2.68 0.37-3.87 0.61-0.03 11.46-0.05 22.93-0.08 34.39z"/>
	<path d="m-7.98 24.87"/>
	<path d="m117.39 48.45c-0.01-3.7-0.02-7.41-0.03-11.11-1.54-0.73-3.77-1.6-6.57-2.13-1.14-0.21-6.21-1.09-12.58 0.55-0.85 0.22-3.79 1-6.61 2.56-7.9 4.36-12.68 13.6-13.76 22.03-0.34 2.63-1.26 10.62 3.49 18.9 1.25 2.19 6.4 10.89 17.28 13.55 9.16 2.24 16.6-1.2 18.73-2.28 0.01-3.74 0.03-7.48 0.04-11.23-1.53 0.64-3.78 1.42-6.59 1.83-2.5 0.36-6.08 0.88-9.78-0.44-6.77-2.41-9.45-9.36-9.91-10.54-0.93-2.42-2.43-7.75-0.13-13.57 0.55-1.4 2.54-6.21 7.64-8.84 3.7-1.91 7.2-1.72 9.72-1.58 4.06 0.22 7.21 1.43 9.06 2.3z"/>
</svg>
