<?xml version="1.0" encoding="UTF-8"?>
<svg enable-background="new 0 0 128 128" version="1.1" viewBox="0 0 128 128" xml:space="preserve" xmlns="http://www.w3.org/2000/svg">
<style type="text/css">
	.st0{fill:#FFFFFF;stroke:#000000;stroke-width:5;stroke-miterlimit:10;}
	.st1{fill:#FFFFFF;}
</style>
	<rect class="st0" width="128" height="128"/>
	<path d="m32.99 105h-13.45c0.01-27.33 0.01-54.67 0.02-82 8.99 0.03 17.97 0.07 26.96 0.1 2.45 0.15 7.22 0.8 11.95 3.97 8.67 5.81 10.23 15.45 10.59 17.67 0.37 2.25 1.42 9.41-2.56 16.77-0.48 0.89-2.29 4.11-5.92 7.23-5.52 4.74-11.51 6.02-14.31 6.43-4.47-0.04-8.94-0.08-13.4-0.12 0.03 9.98 0.08 19.96 0.12 29.95z"/>
	<path class="st1" d="m32.96 34.97c-0.03 9.43-0.05 18.86-0.08 28.29 3.81-0.01 7.61-0.02 11.42-0.03 1.36-0.26 5.07-1.16 7.81-4.47 1.72-2.08 2.3-4.2 2.69-5.7 0.44-1.68 1.49-5.71-0.15-9.79-2.59-6.46-9.97-8.17-10.74-8.33-3.66 0.02-7.3 0.03-10.95 0.03z"/>
	<path d="m79.75 48.35 0.3 56.61c4.47 0.01 8.95 0.02 13.42 0.03-0.02-16.03-0.04-32.06-0.07-48.1 2.43-0.35 4.99-0.65 7.7-0.87 2.57-0.21 5.03-0.34 7.36-0.4-0.02-4.12-0.04-8.23-0.07-12.35-3.51-0.22-7.82-0.2-12.68 0.5-6.62 0.97-12.02 2.85-15.96 4.58z"/>
</svg>
