<?xml version="1.0" encoding="UTF-8"?>
<svg enable-background="new 0 0 128 128" version="1.1" viewBox="0 0 128 128" xml:space="preserve" xmlns="http://www.w3.org/2000/svg">
<style type="text/css">
	.st0{fill:#FFFFFF;stroke:#000000;stroke-width:5;stroke-miterlimit:10;}
	.st1{fill:#FFFFFF;}
</style>
	<rect class="st0" width="128" height="128"/>
	<path d="m33.04 102.26h-14.34c0.03-26.46 0.06-52.91 0.09-79.37 10.59 0.02 21.19 0.04 31.78 0.05 3.03 1 11.13 4.13 14.93 11.94 1.88 3.87 2.18 7.78 2.48 11.81 0.34 4.45 0.58 7.73-0.8 11.71-2.06 5.94-6.32 9.32-8.2 10.78-3.52 2.72-7 3.98-9.19 4.59-5.56-0.02-11.11-0.03-16.67-0.05-0.01 9.52-0.04 19.03-0.08 28.54z"/>
	<path class="st1" d="m33.16 35.66c-0.02 8.44-0.03 16.88-0.05 25.32h13.92c1.28-0.8 4.6-3.11 6.42-7.54 0.62-1.51 2.29-5.58 0.56-10.21-1.96-5.25-6.8-7.24-7.64-7.57h-13.21z"/>
	<path d="m72.79 88.01c0.02 4.73 0.05 9.46 0.07 14.2 2.27 0.66 5.62 1.51 9.77 2.04 4.79 0.61 8.76 1.12 13.67-0.07 2.49-0.6 6.05-1.51 9.42-4.53 3-2.69 4.35-5.7 4.88-7.1 0.6-1.57 2.15-5.77 0.7-10.72-0.94-3.23-2.71-5.24-3.06-5.62-1.77-1.97-3.39-2.56-7.45-4.43-9.87-4.54-11.29-6.09-12.12-7.27-0.75-1.07-2.73-3.88-1.72-6.85 0.96-2.81 4.08-3.91 5.17-4.29 4.72-1.65 9.24 0.58 11.21 1.55 1.93 0.95 3.36 2.05 4.29 2.87 0.02-4.51 0.05-9.01 0.07-13.52-2.11-0.85-5.46-1.97-9.7-2.41-3.9-0.4-8.85-0.92-13.99 1.66-1.29 0.65-5.04 2.59-7.66 6.93-0.59 0.97-4.4 7.54-1.64 14.97 1.47 3.96 4.2 6.29 5.55 7.45 2.78 2.38 3.92 2.09 10.92 6.28 4.07 2.44 5.5 3.62 6.35 5.58 0.26 0.6 1.43 3.28 0.19 5.76-0.68 1.35-1.77 2.05-2.25 2.34-3.46 2.14-7.99 0.87-10.99-0.02-2.67-0.79-7.07-2.5-11.67-6.44 0 0.54-0.01 1.09-0.01 1.64z"/>
</svg>
