<?xml version="1.0" encoding="UTF-8"?>
<svg enable-background="new 0 0 128 128" version="1.1" viewBox="0 0 128 128" xml:space="preserve" xmlns="http://www.w3.org/2000/svg">
<style type="text/css">
	.st0{fill:#FFFFFF;stroke:#000000;stroke-width:5;stroke-miterlimit:10;}
	.st1{fill:#FFFFFF;}
</style>
	<rect class="st0" width="128" height="128"/>
	<path d="m32.77 31.07-12.54-0.12c5.43 10.74 10.86 21.47 16.28 32.21-5.63 10.98-11.26 21.95-16.89 32.93l11.94 0.06c3.94-8.3 7.88-16.59 11.82-24.89 4 8.26 8 16.51 12 24.77 4.2-0.02 8.4-0.04 12.61-0.06-5.73-11.16-11.46-22.32-17.19-33.47l16.47-31.59h-12.1c-3.67 7.96-7.34 15.91-11.02 23.87-3.79-7.9-7.59-15.81-11.38-23.71z"/>
	<path d="m97.71 46.82c-0.04-5.32-0.08-10.64-0.12-15.95 3.81-0.01 7.61-0.03 11.42-0.04 0.11 20.69 0.21 41.37 0.32 62.06-1.41 0.83-3.46 1.88-6.07 2.68-0.88 0.27-5.01 1.48-10.86 1.12-4.06-0.25-8.17-0.51-12.14-3-5.6-3.5-7.52-9.3-8.48-12.2-0.51-1.55-3.98-12.57 2.29-23.03 1.16-1.93 3.93-6.42 9.69-9.36 6.07-3.09 11.79-2.58 13.95-2.28z"/>
	<path class="st1" d="m97.59 56.82c0.03 9.73 0.05 19.46 0.08 29.19-0.86 0.41-2.23 0.92-3.94 0.96-4.28 0.09-7.23-2.87-7.88-3.52-4.97-4.97-3.7-12.74-3.18-15.95 0.71-4.37 2.28-6.31 2.69-6.8 2.18-2.57 4.97-3.41 5.91-3.68 2.79-0.8 5.15-0.45 6.32-0.2z"/>
</svg>
